<?xml version="1.0" encoding="utf-8"?>
<!-- Generator: Adobe Illustrator 15.0.0, SVG Export Plug-In  -->
<!DOCTYPE svg PUBLIC "-//W3C//DTD SVG 1.1//EN" "http://www.w3.org/Graphics/SVG/1.1/DTD/svg11.dtd" [
	<!ENTITY ns_flows "http://ns.adobe.com/Flows/1.0/">
]>
<svg version="1.1"
	 xmlns="http://www.w3.org/2000/svg" xmlns:xlink="http://www.w3.org/1999/xlink" xmlns:a="http://ns.adobe.com/AdobeSVGViewerExtensions/3.0/"
	 x="0px" y="0px" width="80px" height="80px" viewBox="-1.18 -18 80 80"
	 overflow="visible" enable-background="new -1.18 -18 80 80" xml:space="preserve">
<defs>
</defs>
<path fill="#00ADAD" d="M46.081,2.839C46.081,1.271,44.806,0,43.243,0c-1.151,0-2.138,0.683-2.582,1.665
	C40.211,0.683,39.218,0,38.071,0c-1.571,0-2.839,1.271-2.839,2.839c0,0-0.006,0.09,0.014,0.271c0.017,0.209,0.063,0.407,0.122,0.598
	c0.337,1.21,5.291,6.484,5.291,6.484s4.954-5.273,5.289-6.484c0.062-0.19,0.101-0.389,0.122-0.598
	C46.089,2.929,46.081,2.839,46.081,2.839z"/>
<path fill="#4C4941" d="M12.776,31.721c1.005,4.484-0.066,9.717-3.251,13.423c0,0-0.866,1.09-1.659,2.247
	c5.124,1.415,20.744,6.031,25.742,10.958c-0.373-1.091-1.829-5.058-4.107-7.932c-2.663-3.362-7.992-8.031-6.791-12.167
	c0.413-1.424,1.104-4.507,2.422-5.006c0.612-0.233,6.228,0.993,6.084-0.835c-0.146-1.829,0.254-1.806,0.74-2.216
	c0.487-0.407-0.44-1.057-0.44-1.057s0.452-0.28,0.582-0.755c0.129-0.473-0.354-0.667-0.304-1.195
	c0.048-0.528,0.481-0.501,0.841-0.562c0.363-0.063,1.634-0.319,0.868-1.339c-0.65-0.868-2.167-2.264-2.19-3.755
	c-0.007-0.354,0.014-0.656,0.047-0.919c0.53-0.114,1.323-0.379,1.658-0.968c0,0-0.827,0.192-1.528,0.258
	c0.105-0.416,0.214-0.691,0.214-0.914c0,0,3.433-5.625,1.314-8.889c-2.12-3.263-7.432-4.508-9.51-2.958
	c-2.079,1.55-8.79-5.013-12.185-0.662c0,0-6.42-5.94-9.603,0.004c-3.18,5.945-0.385,12.343,3.011,13.14
	c0,0-7.146,3.108-3.874,10.341c3.273,7.235,4.32,9.547,0,16.381c0,0,6.346-2.073,6.708-13.995
	C7.566,32.349,11.32,35.467,12.776,31.721z"/>
<path fill="#00ADAD" d="M4.674,19.503c0,0,8.958,1.689,17.963-12.241c0.002-0.001,0.003-0.001,0.003-0.004
	c-2.658,0.037-8.338-4.789-11.373-0.899C11.267,6.359,9.269,17.107,4.674,19.503z"/>
<path fill="#00ADAD" d="M19.497,53.112c3.996,1.744,15.358,8.87,15.358,8.87s-1.178-3.451-1.237-3.625
	c-4.992-4.934-20.645-9.556-25.761-10.969c-0.001,0.003-0.004,0.005-0.006,0.007c-0.927,1.358-2.118,2.761-0.907,2.912
	C8.442,50.496,15.484,51.359,19.497,53.112z"/>
<path fill="#4C4941" d="M48.816,6.88C48.82,6.656,48.807,6.686,48.816,6.88L48.816,6.88z"/>
<path fill="#4C4941" d="M78.696,46.551l-4.624-6.398l-0.054,0.023c-0.902-1.214-3.215-4.684-2.899-8.011l0.027-0.296
	c0.033-0.357,0.064-0.675,0.096-0.972c0.1,0.075,0.208,0.071,0.315-0.088c0.363-0.551,0.811-2.296,1.753-3.896
	c0.359-0.582,0.762-1.203,1.224-1.866c2.669-3.828,3.67-10.467,1.145-14.417c-2.524-3.95-2.912-5.329-6.764-5.801
	c-3.851-0.472-6.146,0.683-8.044-0.424c-1.898-1.105-4.088,0.78-6.992,0.305c-1.995-0.328-4.562,2.783-4.365,4.521
	c-0.564-0.914-0.682-1.958-0.697-2.35c-0.006,0.171-0.021,0.481-0.064,0.982c-0.265,3.012,1.577,4.281,1.577,4.281
	c0.323,0.506,0.717,0.799,1.146,0.944c-0.822,1.911-1.456,4.861-1.051,5.938c0.004,0.006,0.044,0.106,0.092,0.251
	c-0.534-0.072-0.902-0.328-0.902-0.328c-0.033,0.376,0.712,0.749,1.02,0.887c0.038,0.316,0.02,0.666-0.165,0.95
	c-0.498,0.775-1.957,3.261-2.137,3.645c-0.133,0.289-0.171,0.792,0.027,1.154c0.129,0.236,0.338,0.381,0.604,0.417
	c0.115,0.016,0.237,0.022,0.36,0.03c0.293,0.018,0.598,0.033,0.713,0.183c0.076,0.093,0.092,0.257,0.053,0.487
	c-0.033,0.201-0.07,0.358-0.099,0.492c-0.119,0.562-0.137,0.757,0.35,1.234c-0.097,0.2-0.259,0.589-0.278,0.919
	c-0.018,0.317,0.214,0.468,0.386,0.578c0.18,0.117,0.281,0.189,0.288,0.365c0.024,0.541,0.024,1.062,0,1.428
	c-0.028,0.439,0.232,1.478,1.096,1.794c0.413,0.149,1.503,0.413,2.257,0.644c0.631,0.189,1.229,0.37,1.473,0.461
	c0.455,0.163,0.702,0.309,0.896,1.563c0.153,1.011,0.271,1.378,0.458,1.981c0.058,0.184,0.122,0.388,0.196,0.642
	c0.37,1.251,0.731,2.722,0.617,4.147l-0.916,4.839c-0.298,0.134-0.532,0.242-0.68,0.318C54.446,48.95,50.572,62,50.572,62
	l7.703-5.375c3.49-1.457,6.812-2.672,12.026-4.104C80.508,49.718,78.696,46.551,78.696,46.551z"/>
<path fill="#00ADAD" d="M56.132,48.108c1.457-0.73,10.688-4.572,15.854-6.958l2.086-0.997l0.801,1.11
	c-0.892-1.444-1.685-2.424-1.685-2.424l-18.3,4.818l-0.476,7.167C55.035,49.424,55.645,48.35,56.132,48.108z"/>
</svg>
