<?xml version="1.0" encoding="utf-8"?>
<!-- Generator: Adobe Illustrator 15.0.0, SVG Export Plug-In  -->
<!DOCTYPE svg PUBLIC "-//W3C//DTD SVG 1.1//EN" "http://www.w3.org/Graphics/SVG/1.1/DTD/svg11.dtd" [
	<!ENTITY ns_flows "http://ns.adobe.com/Flows/1.0/">
]>
<svg version="1.1"
	 xmlns="http://www.w3.org/2000/svg" xmlns:xlink="http://www.w3.org/1999/xlink" xmlns:a="http://ns.adobe.com/AdobeSVGViewerExtensions/3.0/"
	 x="0px" y="0px" width="130px" height="130px" viewBox="-21 -28 130 130"
	 overflow="visible" enable-background="new -21 -28 130 130" xml:space="preserve">
<defs>
</defs>
<g>
	<defs>
		<rect id="SVGID_1_" width="98.039" height="102"/>
	</defs>
	<clipPath id="SVGID_2_">
		<use xlink:href="#SVGID_1_"  overflow="visible"/>
	</clipPath>
	<path clip-path="url(#SVGID_2_)" fill-rule="evenodd" clip-rule="evenodd" fill="#00ADAE" d="M23.124,30.295
		c-1.787-1.707,0.362-3.755,2.165-2.064l3.084,2.895l4.674-4.412c1.786-1.706,3.95,0.36,2.164,2.067
		C27.405,36.234,29.333,36.225,23.124,30.295 M24.018,74.622c-1.525-1.453,0.307-3.202,1.844-1.76l2.627,2.47l3.986-3.763
		c1.521-1.455,3.364,0.306,1.842,1.76C27.666,79.683,29.309,79.676,24.018,74.622 M36.652,67.495h-14.97v14.302h14.97V67.495z
		 M20.831,64.946h16.673c1.004,0,1.82,0.778,1.82,1.739v15.922c0,0.96-0.816,1.74-1.82,1.74H20.831c-1.005,0-1.819-0.78-1.819-1.74
		V66.686C19.012,65.725,19.825,64.946,20.831,64.946 M36.652,45.242h-14.97v14.299h14.97V45.242z M20.831,42.69h16.673
		c1.004,0,1.82,0.778,1.82,1.738v15.923c0,0.961-0.816,1.738-1.82,1.738H20.831c-1.005,0-1.819-0.777-1.819-1.738V44.429
		C19.012,43.469,19.825,42.69,20.831,42.69 M36.652,22.984h-14.97v14.302h14.97V22.984z M20.831,20.436h16.673
		c1.004,0,1.82,0.777,1.82,1.737v15.922c0,0.96-0.816,1.74-1.82,1.74H20.831c-1.005,0-1.819-0.78-1.819-1.74V22.173
		C19.012,21.213,19.825,20.436,20.831,20.436"/>
	<path clip-path="url(#SVGID_2_)" fill-rule="evenodd" clip-rule="evenodd" fill="#4A4840" d="M4.512,18.296v79.393h74.449V85.203
		l4.514-1.187v15.828c0,1.189-1.01,2.155-2.256,2.155H2.257C1.012,102,0,101.034,0,99.845c0-28.3,0.001-56.599,0.001-84.898
		c0-0.637,0.236-1.187,0.71-1.638L13.934,0.679C14.406,0.227,14.981,0,15.65,0c21.854,0,43.712,0.002,65.569,0.002
		c1.246,0,2.256,0.964,2.256,2.154v65.53l-4.514,1.19V4.31H19.156v11.833c0,1.189-1.01,2.154-2.255,2.154H4.512z M46.347,68.944
		h20.411c0.8,0,1.456,0.624,1.456,1.39v0.695c0,0.767-0.656,1.39-1.456,1.39H46.347c-0.803,0-1.456-0.623-1.456-1.39v-0.695
		C44.891,69.568,45.544,68.944,46.347,68.944 M46.347,76.872h7.998l-4.361,3.477h-3.637c-0.803,0-1.456-0.622-1.456-1.392v-0.694
		C44.891,77.497,45.544,76.872,46.347,76.872 M46.347,54.615h20.411c0.8,0,1.456,0.625,1.456,1.393v0.696
		c0,0.764-0.656,1.391-1.456,1.391H46.347c-0.803,0-1.456-0.627-1.456-1.391v-0.696C44.891,55.24,45.544,54.615,46.347,54.615
		 M46.347,46.687h20.411c0.8,0,1.456,0.625,1.456,1.393v0.695c0,0.766-0.656,1.392-1.456,1.392H46.347
		c-0.803,0-1.456-0.626-1.456-1.392v-0.695C44.891,47.312,45.544,46.687,46.347,46.687 M46.347,32.36h20.411
		c0.8,0,1.456,0.626,1.456,1.391v0.695c0,0.768-0.656,1.392-1.456,1.392H46.347c-0.803,0-1.456-0.624-1.456-1.392V33.75
		C44.891,32.986,45.544,32.36,46.347,32.36 M46.347,24.432h20.411c0.8,0,1.456,0.625,1.456,1.39v0.695
		c0,0.768-0.656,1.391-1.456,1.391H46.347c-0.803,0-1.456-0.624-1.456-1.391v-0.695C44.891,25.058,45.544,24.432,46.347,24.432
		 M79.789,75.967c-0.712,0.193-1.456-0.201-1.658-0.882s0.212-1.39,0.924-1.583l10.771-2.93c0.712-0.195,1.455,0.2,1.656,0.882
		c0.202,0.679-0.209,1.39-0.924,1.582L79.789,75.967z M57.027,85.552l4.271,0.61c1.314-2.69,0.162-6.834-2.267-8.373l-3.45,2.706
		C56.594,81.886,57.128,83.898,57.027,85.552 M58.323,76.722c13.9-3.69,21.829-5.735,35.728-9.424
		c0.812,0.704,1.621,1.412,2.433,2.116c0.519,1.783,1.035,3.566,1.556,5.35c-0.291,1.079-0.583,2.155-0.873,3.234
		c-13.903,3.688-21.829,5.737-35.732,9.422l-11.986-1.709c-0.32-0.057-0.559-0.343-0.65-0.662c-0.096-0.321-0.051-0.691,0.201-0.894
		C52.105,81.669,55.207,79.196,58.323,76.722 M6.383,13.988h8.261V6.097L6.383,13.988z"/>
</g>
</svg>
