<?xml version="1.0" encoding="utf-8"?>
<!-- Generator: Adobe Illustrator 15.0.0, SVG Export Plug-In  -->
<!DOCTYPE svg PUBLIC "-//W3C//DTD SVG 1.1//EN" "http://www.w3.org/Graphics/SVG/1.1/DTD/svg11.dtd" [
	<!ENTITY ns_flows "http://ns.adobe.com/Flows/1.0/">
]>
<svg version="1.1"
	 xmlns="http://www.w3.org/2000/svg" xmlns:xlink="http://www.w3.org/1999/xlink" xmlns:a="http://ns.adobe.com/AdobeSVGViewerExtensions/3.0/"
	 x="0px" y="0px" width="80px" height="80px" viewBox="-9 -17.958 80 80"
	 overflow="visible" enable-background="new -9 -17.958 80 80" xml:space="preserve">
<defs>
</defs>
<path fill="#00ADAE" d="M41.7,35.7c0.665,0,1.205,0.54,1.205,1.205c0,0.666-0.54,1.206-1.205,1.206H21.104
	c-0.666,0-1.206-0.54-1.206-1.206c0-0.665,0.541-1.205,1.206-1.205H41.7L41.7,35.7z M41.7,25.092c0.665,0,1.205,0.54,1.205,1.204
	c0,0.666-0.54,1.206-1.205,1.206H21.104c-0.666,0-1.206-0.54-1.206-1.205s0.541-1.205,1.206-1.205H41.7L41.7,25.092z M41.7,30.395
	c0.665,0,1.205,0.541,1.205,1.205c0,0.666-0.54,1.206-1.205,1.206H21.104c-0.666,0-1.206-0.54-1.206-1.205s0.541-1.206,1.206-1.206
	H41.7L41.7,30.395z"/>
<path fill="#4A4840" d="M3.153,27.283l1.29,0.995v-3.69c0-1.008,0.465-1.729,1.186-2.377c8.439-5.936,17.288-11.273,25.773-17.142
	c8.486,5.869,17.336,11.207,25.774,17.142c0.721,0.648,1.185,1.37,1.185,2.377v3.69l1.291-0.995v-2.695
	c0-1.409-0.623-2.466-1.658-3.383c-8.708-6.13-17.853-11.624-26.592-17.71c-8.738,6.087-17.882,11.58-26.591,17.71
	c-0.997,0.884-1.624,1.913-1.662,3.269C3.197,25.192,3.153,26.547,3.153,27.283L3.153,27.283z M24.903,44.066l5.538-3.17
	c0.586-0.452,1.39-0.427,1.943,0.017l5.517,3.154l10.49-8.227V19.693H14.188l0.023,15.992L24.903,44.066L24.903,44.066z
	 M31.401,43.992c-8.969,5.124-17.938,9.768-26.904,14.898h53.809C49.337,53.755,40.375,49.119,31.401,43.992L31.401,43.992z
	 M3.153,56.029l18.795-10.273L3.153,31.253V56.029L3.153,56.029z M2.946,18.668c9.141-6.098,18.59-12.07,27.55-18.383
	c0.567-0.398,1.306-0.37,1.835,0.019c9.02,6.35,18.509,12.013,27.526,18.364c1.745,1.228,2.887,3.647,2.937,5.756l0.009,36.042
	c0,0.87-0.706,1.576-1.576,1.576H1.576C0.706,62.042,0,61.336,0,60.466V24.587C0,22.303,1.011,19.959,2.946,18.668L2.946,18.668z
	 M59.651,56.029V31.253L40.857,45.755L59.651,56.029L59.651,56.029z"/>
</svg>
