<?xml version="1.0" encoding="utf-8"?>
<!-- Generator: Adobe Illustrator 15.0.0, SVG Export Plug-In  -->
<!DOCTYPE svg PUBLIC "-//W3C//DTD SVG 1.1//EN" "http://www.w3.org/Graphics/SVG/1.1/DTD/svg11.dtd" [
	<!ENTITY ns_flows "http://ns.adobe.com/Flows/1.0/">
]>
<svg version="1.1"
	 xmlns="http://www.w3.org/2000/svg" xmlns:xlink="http://www.w3.org/1999/xlink" xmlns:a="http://ns.adobe.com/AdobeSVGViewerExtensions/3.0/"
	 x="0px" y="0px" width="130px" height="130px" viewBox="-2.844 -27.807 130 130"
	 overflow="visible" enable-background="new -2.844 -27.807 130 130" xml:space="preserve">
<defs>
</defs>
<path fill-rule="evenodd" clip-rule="evenodd" fill="#4B4940" d="M94.381,59.84c0.716-0.621,1.799-0.546,2.419,0.169
	c0.621,0.715,0.535,1.798-0.178,2.418L68.308,86.827c-0.714,0.621-1.798,0.541-2.418-0.174c-0.612-0.715-0.536-1.795,0.179-2.414
	L94.381,59.84L94.381,59.84z M85.062,86.827c-0.715,0.621-1.79,0.541-2.409-0.174s-0.545-1.795,0.17-2.414l11.559-9.967
	c0.716-0.61,1.799-0.535,2.419,0.18c0.621,0.716,0.535,1.798-0.178,2.418L85.062,86.827L85.062,86.827z M77.627,59.84
	c0.716-0.621,1.799-0.546,2.418,0.169c0.613,0.715,0.537,1.798-0.179,2.418l-11.559,9.957c-0.715,0.621-1.798,0.546-2.418-0.169
	c-0.612-0.715-0.536-1.798,0.179-2.419L77.627,59.84L77.627,59.84z M44.166,75.57c0.966,0.604,1.61,1.68,1.61,2.904
	c0,1.898-1.54,3.435-3.436,3.435c-1.897,0-3.434-1.536-3.434-3.435c0-1.225,0.641-2.301,1.61-2.904V63.881
	c-0.969-0.609-1.61-1.686-1.61-2.916c0-1.896,1.537-3.434,3.434-3.434c1.896,0,3.436,1.538,3.436,3.434
	c0,1.23-0.644,2.307-1.61,2.916V75.57L44.166,75.57z M15.071,102.193c-1.896,0-3.435-1.536-3.435-3.434
	c0-1.896,1.539-3.434,3.435-3.434h5.185V57.271c0.897,0.174,1.82,0.261,2.765,0.261c0.811,0,1.609-0.06,2.388-0.191v37.985h25.733
	V56.114c1.249-0.591,2.406-1.358,3.439-2.265v41.477h53.257V57.353c0.791,0.119,1.606,0.179,2.438,0.179
	c0.921,0,1.828-0.093,2.717-0.276v38.07h5.146c1.896,0,3.435,1.537,3.435,3.434c0,1.897-1.538,3.434-3.435,3.434H15.071
	L15.071,102.193z"/>
<path fill-rule="evenodd" clip-rule="evenodd" fill="#00AEAF" d="M68.346,12.672l0.088,21.414c-1.13,0-2.267,0-3.395,0l0.011-21.414
	C66.148,12.672,67.248,12.672,68.346,12.672L68.346,12.672z M102.691,34.083c-1.147,0-2.285,0.003-3.436,0.003l-4.884-21.411
	c1.109,0,2.22,0,3.32,0L102.691,34.083L102.691,34.083z M85.667,34.085c-1.139,0-2.279,0-3.404,0l-2.459-21.414
	c1.088,0,2.188,0,3.297,0L85.667,34.085L85.667,34.085z M51.031,34.085c-1.143,0-2.276,0-3.407,0l2.44-21.414
	c1.099,0,2.198,0,3.291,0L51.031,34.085L51.031,34.085z M33.916,34.088c-1.141,0-2.284,0-3.429,0l4.994-21.417
	c1.11,0,2.215,0,3.322,0L33.916,34.088L33.916,34.088z M25.49,7.732l82.184-0.012l13.811,31.727c-36.602,0-73.173,0-109.759,0
	L25.49,7.732L25.49,7.732z"/>
<path fill-rule="evenodd" clip-rule="evenodd" fill="#00AEAF" d="M121.574,42.798c0,6.242-5.566,11.3-11.297,11.3
	c-5.727,0-9.61-3.54-10.911-8.347c-1.297,4.807-5.686,8.347-10.902,8.347s-9.608-3.54-10.913-8.347
	c-1.295,4.807-5.684,8.347-10.901,8.347c-5.216,0-9.61-3.54-10.907-8.347c-1.297,4.807-5.686,8.347-10.906,8.347
	c-5.217,0-9.609-3.54-10.907-8.347c-1.299,4.807-5.688,8.347-10.907,8.347c-6.24,0-11.296-5.058-11.296-11.3H121.574L121.574,42.798
	z"/>
<path fill-rule="evenodd" clip-rule="evenodd" fill="#00AEAF" d="M109.721,0H23.472c-3.41,0-3.41,5.153,0,5.153h86.249
	C113.134,5.153,113.132,0,109.721,0L109.721,0z"/>
<g>
	<path fill-rule="evenodd" clip-rule="evenodd" fill="#FFFFFF" d="M18.323,60.565C9.322,60.565,2,53.244,2,44.244
		c0-9,7.322-16.321,16.323-16.321c9.001,0,16.324,7.322,16.324,16.321C34.646,53.244,27.324,60.565,18.323,60.565z"/>
	<path fill="#00ADAE" d="M18.323,29.922c7.898,0,14.324,6.424,14.324,14.321c0,7.896-6.426,14.321-14.324,14.321
		C10.425,58.565,4,52.14,4,44.244C4,36.347,10.425,29.922,18.323,29.922 M18.323,25.922C8.205,25.922,0,34.124,0,44.244
		c0,10.119,8.205,18.321,18.323,18.321c10.121,0,18.324-8.202,18.324-18.321C36.646,34.124,28.444,25.922,18.323,25.922
		L18.323,25.922z"/>
</g>
<text transform="matrix(1 0 0 1 12.3682 48.8882)" fill="#00ADAE" font-family="'FontAwesome'" font-size="12.826"></text>
</svg>
