<?xml version="1.0" encoding="utf-8"?>
<!-- Generator: Adobe Illustrator 15.0.0, SVG Export Plug-In  -->
<!DOCTYPE svg PUBLIC "-//W3C//DTD SVG 1.1//EN" "http://www.w3.org/Graphics/SVG/1.1/DTD/svg11.dtd" [
	<!ENTITY ns_flows "http://ns.adobe.com/Flows/1.0/">
]>
<svg version="1.1"
	 xmlns="http://www.w3.org/2000/svg" xmlns:xlink="http://www.w3.org/1999/xlink" xmlns:a="http://ns.adobe.com/AdobeSVGViewerExtensions/3.0/"
	 x="0px" y="0px" width="80px" height="80px" viewBox="-7 -17.851 80 80"
	 overflow="visible" enable-background="new -7 -17.851 80 80" xml:space="preserve">
<defs>
</defs>
<path fill-rule="evenodd" clip-rule="evenodd" fill="#4B4940" d="M49.662,35.911c0.428-0.371,1.077-0.323,1.449,0.104
	c0.37,0.43,0.324,1.079-0.104,1.45L34.013,52.109c-0.429,0.371-1.078,0.324-1.45-0.104c-0.371-0.43-0.325-1.078,0.104-1.45
	L49.662,35.911L49.662,35.911z M44.069,52.109c-0.429,0.371-1.079,0.324-1.45-0.104c-0.371-0.43-0.324-1.078,0.105-1.45l6.938-5.978
	c0.428-0.371,1.077-0.323,1.449,0.104c0.37,0.43,0.324,1.079-0.104,1.45L44.069,52.109L44.069,52.109z M39.604,35.911
	c0.429-0.371,1.078-0.323,1.45,0.104c0.37,0.43,0.323,1.079-0.104,1.45l-6.938,5.978c-0.43,0.371-1.078,0.324-1.45-0.104
	c-0.371-0.43-0.325-1.079,0.104-1.45L39.604,35.911L39.604,35.911z M19.523,45.351c0.58,0.364,0.966,1.01,0.966,1.747
	c0,1.138-0.923,2.062-2.062,2.062s-2.062-0.924-2.062-2.062c0-0.737,0.386-1.383,0.966-1.747v-7.015
	c-0.581-0.364-0.966-1.011-0.966-1.747c0-1.139,0.922-2.062,2.062-2.062s2.062,0.923,2.062,2.062c0,0.736-0.386,1.383-0.966,1.747
	V45.351L19.523,45.351z M2.062,61.332C0.923,61.332,0,60.408,0,59.27c0-1.139,0.923-2.062,2.062-2.062h3.111V34.372
	c0.538,0.102,1.093,0.156,1.661,0.156c0.485,0,0.964-0.04,1.432-0.117v22.797h15.445V33.675c0.75-0.354,1.443-0.813,2.062-1.358
	v24.891h31.964V34.419c0.473,0.071,0.961,0.108,1.461,0.108c0.555,0,1.101-0.058,1.632-0.164v22.844h3.086
	c1.14,0,2.062,0.924,2.062,2.062c0,1.138-0.923,2.062-2.062,2.062H2.062L2.062,61.332z"/>
<path fill-rule="evenodd" clip-rule="evenodd" fill="#00AEAF" d="M34.033,7.605l0.054,12.85c-0.68,0-1.359,0-2.032,0l0.004-12.85
	C32.717,7.605,33.375,7.605,34.033,7.605L34.033,7.605z M54.645,20.454c-0.686,0-1.371,0.002-2.059,0.002l-2.93-12.848
	c0.663,0,1.328,0,1.992,0L54.645,20.454L54.645,20.454z M44.432,20.456c-0.688,0-1.366,0-2.046,0l-1.478-12.85
	c0.657,0,1.315,0,1.98,0L44.432,20.456L44.432,20.456z M23.645,20.456c-0.686,0-1.366,0-2.045,0l1.466-12.85
	c0.658,0,1.316,0,1.974,0L23.645,20.456L23.645,20.456z M13.372,20.457c-0.686,0-1.372,0-2.058,0l2.997-12.852
	c0.665,0,1.329,0,1.993,0L13.372,20.457L13.372,20.457z M8.315,4.641l49.323-0.008l8.287,19.04c-21.965,0-43.915,0-65.871,0
	L8.315,4.641L8.315,4.641z"/>
<path fill-rule="evenodd" clip-rule="evenodd" fill="#00AEAF" d="M65.979,25.686c0,3.744-3.342,6.78-6.78,6.78
	c-3.438,0-5.767-2.124-6.545-5.01c-0.779,2.886-3.414,5.01-6.546,5.01s-5.767-2.124-6.545-5.01c-0.779,2.886-3.414,5.01-6.547,5.01
	c-3.131,0-5.766-2.124-6.545-5.01c-0.778,2.886-3.414,5.01-6.545,5.01c-3.132,0-5.768-2.124-6.546-5.01
	c-0.779,2.886-3.414,5.01-6.545,5.01c-3.745,0-6.78-3.036-6.78-6.78H65.979L65.979,25.686z"/>
<path fill-rule="evenodd" clip-rule="evenodd" fill="#00AEAF" d="M58.867,0H7.104c-2.045,0-2.045,3.093,0,3.093h51.764
	C60.913,3.093,60.912,0,58.867,0L58.867,0z"/>
</svg>
