<?xml version="1.0" encoding="utf-8"?>
<!-- Generator: Adobe Illustrator 15.0.0, SVG Export Plug-In  -->
<!DOCTYPE svg PUBLIC "-//W3C//DTD SVG 1.1//EN" "http://www.w3.org/Graphics/SVG/1.1/DTD/svg11.dtd" [
	<!ENTITY ns_flows "http://ns.adobe.com/Flows/1.0/">
]>
<svg version="1.1"
	 xmlns="http://www.w3.org/2000/svg" xmlns:xlink="http://www.w3.org/1999/xlink" xmlns:a="http://ns.adobe.com/AdobeSVGViewerExtensions/3.0/"
	 x="0px" y="0px" width="130px" height="130px" viewBox="-3 -28.938 130 130"
	 overflow="visible" enable-background="new -3 -28.938 130 130" xml:space="preserve">
<defs>
</defs>
<g>
	<defs>
		<rect id="SVGID_1_" x="0" width="120" height="101.062"/>
	</defs>
	<clipPath id="SVGID_2_">
		<use xlink:href="#SVGID_1_"  overflow="visible"/>
	</clipPath>
	<path clip-path="url(#SVGID_2_)" fill-rule="evenodd" clip-rule="evenodd" fill="#4C4A41" d="M93.111,59.174
		c0.71-0.611,1.78-0.535,2.391,0.174c0.611,0.705,0.534,1.775-0.172,2.389l-28.001,24.13c-0.707,0.612-1.78,0.532-2.39-0.173
		c-0.609-0.707-0.536-1.778,0.172-2.391L93.111,59.174z M83.899,85.867c-0.707,0.612-1.777,0.532-2.39-0.173
		c-0.609-0.707-0.535-1.778,0.175-2.391l11.427-9.848c0.71-0.613,1.78-0.535,2.391,0.17c0.611,0.71,0.534,1.779-0.172,2.389
		L83.899,85.867z M76.541,59.174c0.707-0.611,1.779-0.535,2.391,0.174c0.609,0.705,0.534,1.775-0.174,2.389l-11.429,9.848
		c-0.708,0.613-1.78,0.537-2.39-0.172c-0.609-0.707-0.536-1.775,0.172-2.389L76.541,59.174z M43.451,74.73
		c0.957,0.601,1.594,1.665,1.594,2.878c0,1.876-1.523,3.398-3.398,3.398s-3.398-1.522-3.398-3.398c0-1.213,0.637-2.277,1.593-2.878
		V63.17c-0.956-0.6-1.593-1.664-1.593-2.878c0-1.877,1.523-3.397,3.398-3.397s3.398,1.521,3.398,3.397
		c0,1.214-0.637,2.278-1.594,2.878V74.73z M14.679,101.062c-1.876,0-3.397-1.519-3.397-3.397c0-1.875,1.521-3.396,3.397-3.396h5.127
		V56.639c0.888,0.168,1.802,0.256,2.736,0.256c0.8,0,1.59-0.064,2.36-0.193v37.566h25.452V55.493
		c1.234-0.584,2.376-1.341,3.396-2.239v41.015h52.672V56.715c0.778,0.119,1.586,0.18,2.406,0.18c0.914,0,1.814-0.094,2.689-0.271
		v37.645h5.086c1.877,0,3.397,1.521,3.397,3.396c0,1.879-1.521,3.397-3.397,3.397H14.679z"/>
	<path clip-path="url(#SVGID_2_)" fill-rule="evenodd" clip-rule="evenodd" fill="#00ADAE" d="M67.363,12.532l0.087,21.173h-3.351
		l0.009-21.173H67.363z M101.328,33.705c-1.136,0-2.264,0.001-3.395,0.001l-4.83-21.17h3.285L101.328,33.705z M84.497,33.706h-3.372
		l-2.436-21.173h3.266L84.497,33.706z M50.242,33.706h-3.369l2.414-21.173h3.252L50.242,33.706z M33.315,33.71h-3.391l4.939-21.178
		h3.285L33.315,33.71z M24.982,7.648l81.275-0.014l13.656,31.374H11.372L24.982,7.648z"/>
	<path clip-path="url(#SVGID_2_)" fill-rule="evenodd" clip-rule="evenodd" fill="#00ADAE" d="M120,42.326
		c0,6.169-5.505,11.173-11.173,11.173c-5.662,0-9.503-3.501-10.784-8.255c-1.285,4.754-5.624,8.255-10.786,8.255
		s-9.503-3.501-10.787-8.255c-1.283,4.754-5.625,8.255-10.785,8.255c-5.159,0-9.502-3.501-10.785-8.255
		c-1.283,4.754-5.625,8.255-10.787,8.255c-5.16,0-9.502-3.501-10.786-8.255c-1.285,4.754-5.626,8.255-10.786,8.255
		c-6.17,0-11.17-5.004-11.17-11.173H120z"/>
	<path clip-path="url(#SVGID_2_)" fill-rule="evenodd" clip-rule="evenodd" fill="#00ADAE" d="M108.285,0H22.987
		c-3.371,0-3.371,5.096,0,5.096h85.298C111.653,5.096,111.65,0,108.285,0"/>
	<path clip-path="url(#SVGID_2_)" fill-rule="evenodd" clip-rule="evenodd" fill="#FFFFFF" d="M18.12,59.834
		C9.232,59.834,2,52.603,2,43.714c0-8.888,7.232-16.119,16.12-16.119c8.889,0,16.121,7.231,16.121,16.119
		C34.241,52.603,27.009,59.834,18.12,59.834"/>
	<path clip-path="url(#SVGID_2_)" fill="#00ACAE" d="M18.12,29.596c7.786,0,14.121,6.333,14.121,14.119
		c0,7.785-6.335,14.12-14.121,14.12S4,51.5,4,43.714C4,35.929,10.334,29.596,18.12,29.596 M18.12,25.596
		C8.113,25.596,0,33.707,0,43.714c0,10.009,8.113,18.12,18.12,18.12c10.008,0,18.121-8.111,18.121-18.12
		C36.241,33.707,28.128,25.596,18.12,25.596"/>
</g>
<path fill="#00ACAE" d="M23.411,42.001l-5.126,5.125l-0.963,0.963c-0.127,0.128-0.304,0.199-0.481,0.199
	c-0.177,0-0.354-0.071-0.481-0.199l-0.963-0.963l-2.563-2.562c-0.127-0.127-0.198-0.305-0.198-0.481s0.071-0.354,0.198-0.481
	l0.963-0.963c0.127-0.127,0.305-0.198,0.481-0.198c0.177,0,0.354,0.071,0.481,0.198l2.082,2.089l4.645-4.651
	c0.127-0.128,0.305-0.199,0.481-0.199c0.177,0,0.354,0.071,0.481,0.199l0.963,0.963c0.127,0.127,0.198,0.305,0.198,0.48
	C23.609,41.697,23.539,41.874,23.411,42.001z"/>
</svg>
